<mxfile host="app.diagrams.net" agent="Mozilla/5.0 (Windows NT 10.0; Win64; x64) AppleWebKit/537.36 (KHTML, like Gecko) Chrome/132.0.0.0 Safari/537.36" version="26.0.11">
  <diagram name="Pagina-1" id="9haloyW95PjSCCVmwwok">
    <mxGraphModel grid="1" page="1" gridSize="10" guides="1" tooltips="1" connect="1" arrows="1" fold="1" pageScale="1" pageWidth="827" pageHeight="1169" math="0" shadow="0">
      <root>
        <mxCell id="0" />
        <mxCell id="1" parent="0" />
        <mxCell id="majqjS3A9KxO7dfuxN8L-53" value="&lt;font style=&quot;vertical-align: inherit;&quot;&gt;&lt;font style=&quot;vertical-align: inherit;&quot;&gt;&lt;font style=&quot;vertical-align: inherit;&quot;&gt;&lt;font style=&quot;vertical-align: inherit;&quot;&gt;Cliente&lt;/font&gt;&lt;/font&gt;&lt;/font&gt;&lt;/font&gt;" style="swimlane;fontStyle=0;childLayout=stackLayout;horizontal=1;startSize=26;fillColor=none;horizontalStack=0;resizeParent=1;resizeParentMax=0;resizeLast=0;collapsible=1;marginBottom=0;whiteSpace=wrap;html=1;" vertex="1" parent="1">
          <mxGeometry x="2130" y="295.25" width="140" height="80" as="geometry" />
        </mxCell>
        <mxCell id="majqjS3A9KxO7dfuxN8L-54" value="IdCliente" style="text;strokeColor=none;fillColor=none;align=left;verticalAlign=top;spacingLeft=4;spacingRight=4;overflow=hidden;rotatable=0;points=[[0,0.5],[1,0.5]];portConstraint=eastwest;whiteSpace=wrap;html=1;" vertex="1" parent="majqjS3A9KxO7dfuxN8L-53">
          <mxGeometry y="26" width="140" height="26" as="geometry" />
        </mxCell>
        <mxCell id="majqjS3A9KxO7dfuxN8L-55" value="&lt;i&gt;Dati Registrazione&lt;/i&gt;" style="text;strokeColor=none;fillColor=none;align=left;verticalAlign=top;spacingLeft=4;spacingRight=4;overflow=hidden;rotatable=0;points=[[0,0.5],[1,0.5]];portConstraint=eastwest;whiteSpace=wrap;html=1;" vertex="1" parent="majqjS3A9KxO7dfuxN8L-53">
          <mxGeometry y="52" width="140" height="28" as="geometry" />
        </mxCell>
        <mxCell id="majqjS3A9KxO7dfuxN8L-169" style="edgeStyle=orthogonalEdgeStyle;rounded=0;orthogonalLoop=1;jettySize=auto;html=1;entryX=0.494;entryY=1.024;entryDx=0;entryDy=0;entryPerimeter=0;endArrow=none;endFill=0;" edge="1" parent="1" source="majqjS3A9KxO7dfuxN8L-57" target="majqjS3A9KxO7dfuxN8L-138">
          <mxGeometry relative="1" as="geometry">
            <mxPoint x="2500" y="-110.00000000000023" as="targetPoint" />
            <Array as="points">
              <mxPoint x="2500" y="50" />
              <mxPoint x="2499" y="50" />
            </Array>
          </mxGeometry>
        </mxCell>
        <mxCell id="majqjS3A9KxO7dfuxN8L-57" value="&lt;font style=&quot;vertical-align: inherit;&quot;&gt;&lt;font style=&quot;vertical-align: inherit;&quot;&gt;&lt;font style=&quot;vertical-align: inherit;&quot;&gt;&lt;font style=&quot;vertical-align: inherit;&quot;&gt;Negozio&lt;/font&gt;&lt;/font&gt;&lt;/font&gt;&lt;/font&gt;" style="swimlane;fontStyle=0;childLayout=stackLayout;horizontal=1;startSize=26;fillColor=none;horizontalStack=0;resizeParent=1;resizeParentMax=0;resizeLast=0;collapsible=1;marginBottom=0;whiteSpace=wrap;html=1;" vertex="1" parent="1">
          <mxGeometry x="2431" y="76" width="140" height="78" as="geometry" />
        </mxCell>
        <mxCell id="majqjS3A9KxO7dfuxN8L-58" value="IdNegozio" style="text;strokeColor=none;fillColor=none;align=left;verticalAlign=top;spacingLeft=4;spacingRight=4;overflow=hidden;rotatable=0;points=[[0,0.5],[1,0.5]];portConstraint=eastwest;whiteSpace=wrap;html=1;" vertex="1" parent="majqjS3A9KxO7dfuxN8L-57">
          <mxGeometry y="26" width="140" height="26" as="geometry" />
        </mxCell>
        <mxCell id="majqjS3A9KxO7dfuxN8L-59" value="StatoSportello" style="text;strokeColor=none;fillColor=none;align=left;verticalAlign=top;spacingLeft=4;spacingRight=4;overflow=hidden;rotatable=0;points=[[0,0.5],[1,0.5]];portConstraint=eastwest;whiteSpace=wrap;html=1;" vertex="1" parent="majqjS3A9KxO7dfuxN8L-57">
          <mxGeometry y="52" width="140" height="26" as="geometry" />
        </mxCell>
        <mxCell id="majqjS3A9KxO7dfuxN8L-158" style="edgeStyle=orthogonalEdgeStyle;rounded=0;orthogonalLoop=1;jettySize=auto;html=1;entryX=0.5;entryY=0;entryDx=0;entryDy=0;endArrow=none;endFill=0;" edge="1" parent="1" source="majqjS3A9KxO7dfuxN8L-60" target="majqjS3A9KxO7dfuxN8L-77">
          <mxGeometry relative="1" as="geometry" />
        </mxCell>
        <mxCell id="majqjS3A9KxO7dfuxN8L-60" value="&lt;font style=&quot;vertical-align: inherit;&quot;&gt;&lt;font style=&quot;vertical-align: inherit;&quot;&gt;Sede Lavorazione&lt;/font&gt;&lt;/font&gt;" style="swimlane;fontStyle=0;childLayout=stackLayout;horizontal=1;startSize=26;fillColor=none;horizontalStack=0;resizeParent=1;resizeParentMax=0;resizeLast=0;collapsible=1;marginBottom=0;whiteSpace=wrap;html=1;" vertex="1" parent="1">
          <mxGeometry x="3180" y="465.25" width="140" height="52" as="geometry">
            <mxRectangle x="240" y="414" width="140" height="30" as="alternateBounds" />
          </mxGeometry>
        </mxCell>
        <mxCell id="majqjS3A9KxO7dfuxN8L-61" value="IdSede" style="text;strokeColor=none;fillColor=none;align=left;verticalAlign=top;spacingLeft=4;spacingRight=4;overflow=hidden;rotatable=0;points=[[0,0.5],[1,0.5]];portConstraint=eastwest;whiteSpace=wrap;html=1;" vertex="1" parent="majqjS3A9KxO7dfuxN8L-60">
          <mxGeometry y="26" width="140" height="26" as="geometry" />
        </mxCell>
        <mxCell id="majqjS3A9KxO7dfuxN8L-168" style="edgeStyle=orthogonalEdgeStyle;rounded=0;orthogonalLoop=1;jettySize=auto;html=1;entryX=0;entryY=0.5;entryDx=0;entryDy=0;endArrow=none;endFill=0;" edge="1" parent="1" source="majqjS3A9KxO7dfuxN8L-64" target="majqjS3A9KxO7dfuxN8L-68">
          <mxGeometry relative="1" as="geometry">
            <Array as="points">
              <mxPoint x="2670" y="339" />
              <mxPoint x="2670" y="339" />
            </Array>
          </mxGeometry>
        </mxCell>
        <mxCell id="majqjS3A9KxO7dfuxN8L-64" value="Totem" style="swimlane;fontStyle=0;childLayout=stackLayout;horizontal=1;startSize=26;fillColor=none;horizontalStack=0;resizeParent=1;resizeParentMax=0;resizeLast=0;collapsible=1;marginBottom=0;whiteSpace=wrap;html=1;" vertex="1" parent="1">
          <mxGeometry x="2431" y="309.25" width="140" height="52" as="geometry" />
        </mxCell>
        <mxCell id="majqjS3A9KxO7dfuxN8L-65" value="IdTotem" style="text;strokeColor=none;fillColor=none;align=left;verticalAlign=top;spacingLeft=4;spacingRight=4;overflow=hidden;rotatable=0;points=[[0,0.5],[1,0.5]];portConstraint=eastwest;whiteSpace=wrap;html=1;" vertex="1" parent="majqjS3A9KxO7dfuxN8L-64">
          <mxGeometry y="26" width="140" height="26" as="geometry" />
        </mxCell>
        <mxCell id="majqjS3A9KxO7dfuxN8L-170" style="edgeStyle=orthogonalEdgeStyle;rounded=0;orthogonalLoop=1;jettySize=auto;html=1;entryX=0;entryY=0.5;entryDx=0;entryDy=0;endArrow=none;endFill=0;" edge="1" parent="1" source="majqjS3A9KxO7dfuxN8L-67" target="majqjS3A9KxO7dfuxN8L-87">
          <mxGeometry relative="1" as="geometry" />
        </mxCell>
        <mxCell id="majqjS3A9KxO7dfuxN8L-67" value="Capo" style="swimlane;fontStyle=0;childLayout=stackLayout;horizontal=1;startSize=26;fillColor=none;horizontalStack=0;resizeParent=1;resizeParentMax=0;resizeLast=0;collapsible=1;marginBottom=0;whiteSpace=wrap;html=1;" vertex="1" parent="1">
          <mxGeometry x="2970" y="301.25" width="140" height="78" as="geometry" />
        </mxCell>
        <mxCell id="majqjS3A9KxO7dfuxN8L-68" value="IdCapo" style="text;strokeColor=none;fillColor=none;align=left;verticalAlign=top;spacingLeft=4;spacingRight=4;overflow=hidden;rotatable=0;points=[[0,0.5],[1,0.5]];portConstraint=eastwest;whiteSpace=wrap;html=1;" vertex="1" parent="majqjS3A9KxO7dfuxN8L-67">
          <mxGeometry y="26" width="140" height="24" as="geometry" />
        </mxCell>
        <mxCell id="majqjS3A9KxO7dfuxN8L-69" value="StatoLavorazione" style="text;strokeColor=none;fillColor=none;align=left;verticalAlign=top;spacingLeft=4;spacingRight=4;overflow=hidden;rotatable=0;points=[[0,0.5],[1,0.5]];portConstraint=eastwest;whiteSpace=wrap;html=1;" vertex="1" parent="majqjS3A9KxO7dfuxN8L-67">
          <mxGeometry y="50" width="140" height="28" as="geometry" />
        </mxCell>
        <mxCell id="majqjS3A9KxO7dfuxN8L-74" value="Operatore" style="swimlane;fontStyle=0;childLayout=stackLayout;horizontal=1;startSize=26;fillColor=none;horizontalStack=0;resizeParent=1;resizeParentMax=0;resizeLast=0;collapsible=1;marginBottom=0;whiteSpace=wrap;html=1;" vertex="1" parent="1">
          <mxGeometry x="3450" y="680" width="140" height="78" as="geometry" />
        </mxCell>
        <mxCell id="majqjS3A9KxO7dfuxN8L-75" value="IdLavoratore" style="text;strokeColor=none;fillColor=none;align=left;verticalAlign=top;spacingLeft=4;spacingRight=4;overflow=hidden;rotatable=0;points=[[0,0.5],[1,0.5]];portConstraint=eastwest;whiteSpace=wrap;html=1;" vertex="1" parent="majqjS3A9KxO7dfuxN8L-74">
          <mxGeometry y="26" width="140" height="26" as="geometry" />
        </mxCell>
        <mxCell id="majqjS3A9KxO7dfuxN8L-76" value="TipoOperatore" style="text;strokeColor=none;fillColor=none;align=left;verticalAlign=top;spacingLeft=4;spacingRight=4;overflow=hidden;rotatable=0;points=[[0,0.5],[1,0.5]];portConstraint=eastwest;whiteSpace=wrap;html=1;" vertex="1" parent="majqjS3A9KxO7dfuxN8L-74">
          <mxGeometry y="52" width="140" height="26" as="geometry" />
        </mxCell>
        <mxCell id="majqjS3A9KxO7dfuxN8L-77" value="Stazione di lavoro" style="swimlane;fontStyle=0;childLayout=stackLayout;horizontal=1;startSize=26;fillColor=none;horizontalStack=0;resizeParent=1;resizeParentMax=0;resizeLast=0;collapsible=1;marginBottom=0;whiteSpace=wrap;html=1;" vertex="1" parent="1">
          <mxGeometry x="3180" y="650" width="140" height="130" as="geometry" />
        </mxCell>
        <mxCell id="majqjS3A9KxO7dfuxN8L-78" value="IdStazione" style="text;strokeColor=none;fillColor=none;align=left;verticalAlign=top;spacingLeft=4;spacingRight=4;overflow=hidden;rotatable=0;points=[[0,0.5],[1,0.5]];portConstraint=eastwest;whiteSpace=wrap;html=1;" vertex="1" parent="majqjS3A9KxO7dfuxN8L-77">
          <mxGeometry y="26" width="140" height="26" as="geometry" />
        </mxCell>
        <mxCell id="majqjS3A9KxO7dfuxN8L-79" value="TipoMacchinario" style="text;strokeColor=none;fillColor=none;align=left;verticalAlign=top;spacingLeft=4;spacingRight=4;overflow=hidden;rotatable=0;points=[[0,0.5],[1,0.5]];portConstraint=eastwest;whiteSpace=wrap;html=1;" vertex="1" parent="majqjS3A9KxO7dfuxN8L-77">
          <mxGeometry y="52" width="140" height="26" as="geometry" />
        </mxCell>
        <mxCell id="majqjS3A9KxO7dfuxN8L-80" value="StatoMacchinario" style="text;strokeColor=none;fillColor=none;align=left;verticalAlign=top;spacingLeft=4;spacingRight=4;overflow=hidden;rotatable=0;points=[[0,0.5],[1,0.5]];portConstraint=eastwest;whiteSpace=wrap;html=1;" vertex="1" parent="majqjS3A9KxO7dfuxN8L-77">
          <mxGeometry y="78" width="140" height="26" as="geometry" />
        </mxCell>
        <mxCell id="majqjS3A9KxO7dfuxN8L-81" value="LivelloProdottoLavaggio" style="text;strokeColor=none;fillColor=none;align=left;verticalAlign=top;spacingLeft=4;spacingRight=4;overflow=hidden;rotatable=0;points=[[0,0.5],[1,0.5]];portConstraint=eastwest;whiteSpace=wrap;html=1;" vertex="1" parent="majqjS3A9KxO7dfuxN8L-77">
          <mxGeometry y="104" width="140" height="26" as="geometry" />
        </mxCell>
        <mxCell id="majqjS3A9KxO7dfuxN8L-82" value="" style="endArrow=none;html=1;rounded=0;exitX=0.5;exitY=0;exitDx=0;exitDy=0;entryX=0.494;entryY=0.996;entryDx=0;entryDy=0;entryPerimeter=0;" edge="1" parent="1" source="majqjS3A9KxO7dfuxN8L-64" target="majqjS3A9KxO7dfuxN8L-59">
          <mxGeometry width="50" height="50" relative="1" as="geometry">
            <mxPoint x="2291" y="499.25" as="sourcePoint" />
            <mxPoint x="2501" y="270.25" as="targetPoint" />
          </mxGeometry>
        </mxCell>
        <mxCell id="majqjS3A9KxO7dfuxN8L-83" value="" style="endArrow=none;html=1;rounded=0;entryX=0;entryY=0.5;entryDx=0;entryDy=0;exitX=1;exitY=0.5;exitDx=0;exitDy=0;" edge="1" parent="1" source="majqjS3A9KxO7dfuxN8L-53" target="majqjS3A9KxO7dfuxN8L-64">
          <mxGeometry width="50" height="50" relative="1" as="geometry">
            <mxPoint x="2311" y="459.25" as="sourcePoint" />
            <mxPoint x="2361" y="409.25" as="targetPoint" />
          </mxGeometry>
        </mxCell>
        <mxCell id="majqjS3A9KxO7dfuxN8L-86" value="&lt;font style=&quot;vertical-align: inherit;&quot;&gt;&lt;font style=&quot;vertical-align: inherit;&quot;&gt;Pallet&lt;/font&gt;&lt;/font&gt;" style="swimlane;fontStyle=0;childLayout=stackLayout;horizontal=1;startSize=26;fillColor=none;horizontalStack=0;resizeParent=1;resizeParentMax=0;resizeLast=0;collapsible=1;marginBottom=0;whiteSpace=wrap;html=1;" vertex="1" parent="1">
          <mxGeometry x="3290" y="301.25" width="140" height="80" as="geometry" />
        </mxCell>
        <mxCell id="majqjS3A9KxO7dfuxN8L-87" value="IdPallet" style="text;strokeColor=none;fillColor=none;align=left;verticalAlign=top;spacingLeft=4;spacingRight=4;overflow=hidden;rotatable=0;points=[[0,0.5],[1,0.5]];portConstraint=eastwest;whiteSpace=wrap;html=1;" vertex="1" parent="majqjS3A9KxO7dfuxN8L-86">
          <mxGeometry y="26" width="140" height="26" as="geometry" />
        </mxCell>
        <mxCell id="majqjS3A9KxO7dfuxN8L-88" value="TipoCapiContenuti" style="text;strokeColor=none;fillColor=none;align=left;verticalAlign=top;spacingLeft=4;spacingRight=4;overflow=hidden;rotatable=0;points=[[0,0.5],[1,0.5]];portConstraint=eastwest;whiteSpace=wrap;html=1;" vertex="1" parent="majqjS3A9KxO7dfuxN8L-86">
          <mxGeometry y="52" width="140" height="28" as="geometry" />
        </mxCell>
        <mxCell id="majqjS3A9KxO7dfuxN8L-162" style="edgeStyle=orthogonalEdgeStyle;rounded=0;orthogonalLoop=1;jettySize=auto;html=1;entryX=1;entryY=0.5;entryDx=0;entryDy=0;endArrow=none;endFill=0;" edge="1" parent="1" source="majqjS3A9KxO7dfuxN8L-105" target="majqjS3A9KxO7dfuxN8L-137">
          <mxGeometry relative="1" as="geometry" />
        </mxCell>
        <mxCell id="majqjS3A9KxO7dfuxN8L-105" value="&lt;font style=&quot;vertical-align: inherit;&quot;&gt;&lt;font style=&quot;vertical-align: inherit;&quot;&gt;Itinerario&lt;/font&gt;&lt;/font&gt;" style="swimlane;fontStyle=0;childLayout=stackLayout;horizontal=1;startSize=26;fillColor=none;horizontalStack=0;resizeParent=1;resizeParentMax=0;resizeLast=0;collapsible=1;marginBottom=0;whiteSpace=wrap;html=1;" vertex="1" parent="1">
          <mxGeometry x="2716" y="-201" width="140" height="80" as="geometry" />
        </mxCell>
        <mxCell id="majqjS3A9KxO7dfuxN8L-106" value="IdItinerario" style="text;strokeColor=none;fillColor=none;align=left;verticalAlign=top;spacingLeft=4;spacingRight=4;overflow=hidden;rotatable=0;points=[[0,0.5],[1,0.5]];portConstraint=eastwest;whiteSpace=wrap;html=1;" vertex="1" parent="majqjS3A9KxO7dfuxN8L-105">
          <mxGeometry y="26" width="140" height="26" as="geometry" />
        </mxCell>
        <mxCell id="majqjS3A9KxO7dfuxN8L-107" value="Tipologia" style="text;strokeColor=none;fillColor=none;align=left;verticalAlign=top;spacingLeft=4;spacingRight=4;overflow=hidden;rotatable=0;points=[[0,0.5],[1,0.5]];portConstraint=eastwest;whiteSpace=wrap;html=1;" vertex="1" parent="majqjS3A9KxO7dfuxN8L-105">
          <mxGeometry y="52" width="140" height="28" as="geometry" />
        </mxCell>
        <mxCell id="majqjS3A9KxO7dfuxN8L-109" value="*" style="text;html=1;align=center;verticalAlign=middle;resizable=0;points=[];autosize=1;strokeColor=none;fillColor=none;" vertex="1" parent="1">
          <mxGeometry x="2265" y="309.25" width="30" height="30" as="geometry" />
        </mxCell>
        <mxCell id="majqjS3A9KxO7dfuxN8L-110" value="1..*" style="text;html=1;align=center;verticalAlign=middle;resizable=0;points=[];autosize=1;strokeColor=none;fillColor=none;" vertex="1" parent="1">
          <mxGeometry x="2395" y="309.25" width="40" height="30" as="geometry" />
        </mxCell>
        <mxCell id="majqjS3A9KxO7dfuxN8L-111" value="1" style="text;html=1;align=center;verticalAlign=middle;resizable=0;points=[];autosize=1;strokeColor=none;fillColor=none;" vertex="1" parent="1">
          <mxGeometry x="2475" y="150" width="30" height="30" as="geometry" />
        </mxCell>
        <mxCell id="majqjS3A9KxO7dfuxN8L-112" value="1" style="text;html=1;align=center;verticalAlign=middle;resizable=0;points=[];autosize=1;strokeColor=none;fillColor=none;" vertex="1" parent="1">
          <mxGeometry x="2475" y="279.25" width="30" height="30" as="geometry" />
        </mxCell>
        <mxCell id="majqjS3A9KxO7dfuxN8L-115" value="1" style="text;html=1;align=center;verticalAlign=middle;resizable=0;points=[];autosize=1;strokeColor=none;fillColor=none;" vertex="1" parent="1">
          <mxGeometry x="2571" y="310" width="30" height="30" as="geometry" />
        </mxCell>
        <mxCell id="majqjS3A9KxO7dfuxN8L-116" value="*" style="text;html=1;align=center;verticalAlign=middle;resizable=0;points=[];autosize=1;strokeColor=none;fillColor=none;" vertex="1" parent="1">
          <mxGeometry x="3010" y="278" width="30" height="30" as="geometry" />
        </mxCell>
        <mxCell id="majqjS3A9KxO7dfuxN8L-120" value="*" style="text;html=1;align=center;verticalAlign=middle;resizable=0;points=[];autosize=1;strokeColor=none;fillColor=none;" vertex="1" parent="1">
          <mxGeometry x="2940" y="308" width="30" height="30" as="geometry" />
        </mxCell>
        <mxCell id="majqjS3A9KxO7dfuxN8L-121" value="*" style="text;html=1;align=center;verticalAlign=middle;resizable=0;points=[];autosize=1;strokeColor=none;fillColor=none;" vertex="1" parent="1">
          <mxGeometry x="3075" y="273" width="30" height="30" as="geometry" />
        </mxCell>
        <mxCell id="majqjS3A9KxO7dfuxN8L-124" value="1" style="text;html=1;align=center;verticalAlign=middle;resizable=0;points=[];autosize=1;strokeColor=none;fillColor=none;" vertex="1" parent="1">
          <mxGeometry x="3246" y="159.25" width="30" height="30" as="geometry" />
        </mxCell>
        <mxCell id="majqjS3A9KxO7dfuxN8L-125" value="1" style="text;html=1;align=center;verticalAlign=middle;whiteSpace=wrap;rounded=0;" vertex="1" parent="1">
          <mxGeometry x="3020" y="159.25" width="60" height="30" as="geometry" />
        </mxCell>
        <mxCell id="majqjS3A9KxO7dfuxN8L-128" value="*" style="text;html=1;align=center;verticalAlign=middle;resizable=0;points=[];autosize=1;strokeColor=none;fillColor=none;" vertex="1" parent="1">
          <mxGeometry x="2570" y="-188" width="30" height="30" as="geometry" />
        </mxCell>
        <mxCell id="majqjS3A9KxO7dfuxN8L-129" value="1" style="text;html=1;align=center;verticalAlign=middle;resizable=0;points=[];autosize=1;strokeColor=none;fillColor=none;" vertex="1" parent="1">
          <mxGeometry x="2686" y="-188" width="30" height="30" as="geometry" />
        </mxCell>
        <mxCell id="majqjS3A9KxO7dfuxN8L-130" value="*" style="text;html=1;align=center;verticalAlign=middle;resizable=0;points=[];autosize=1;strokeColor=none;fillColor=none;" vertex="1" parent="1">
          <mxGeometry x="3246" y="620" width="30" height="30" as="geometry" />
        </mxCell>
        <mxCell id="majqjS3A9KxO7dfuxN8L-134" value="1" style="text;html=1;align=center;verticalAlign=middle;resizable=0;points=[];autosize=1;strokeColor=none;fillColor=none;" vertex="1" parent="1">
          <mxGeometry x="3246" y="517.25" width="30" height="30" as="geometry" />
        </mxCell>
        <mxCell id="majqjS3A9KxO7dfuxN8L-136" value="&lt;font style=&quot;vertical-align: inherit;&quot;&gt;&lt;font style=&quot;vertical-align: inherit;&quot;&gt;Tappa&lt;/font&gt;&lt;/font&gt;" style="swimlane;fontStyle=0;childLayout=stackLayout;horizontal=1;startSize=26;fillColor=none;horizontalStack=0;resizeParent=1;resizeParentMax=0;resizeLast=0;collapsible=1;marginBottom=0;whiteSpace=wrap;html=1;" vertex="1" parent="1">
          <mxGeometry x="2430" y="-200" width="140" height="80" as="geometry" />
        </mxCell>
        <mxCell id="majqjS3A9KxO7dfuxN8L-137" value="IdTappa" style="text;strokeColor=none;fillColor=none;align=left;verticalAlign=top;spacingLeft=4;spacingRight=4;overflow=hidden;rotatable=0;points=[[0,0.5],[1,0.5]];portConstraint=eastwest;whiteSpace=wrap;html=1;" vertex="1" parent="majqjS3A9KxO7dfuxN8L-136">
          <mxGeometry y="26" width="140" height="26" as="geometry" />
        </mxCell>
        <mxCell id="majqjS3A9KxO7dfuxN8L-138" value="Stato" style="text;strokeColor=none;fillColor=none;align=left;verticalAlign=top;spacingLeft=4;spacingRight=4;overflow=hidden;rotatable=0;points=[[0,0.5],[1,0.5]];portConstraint=eastwest;whiteSpace=wrap;html=1;" vertex="1" parent="majqjS3A9KxO7dfuxN8L-136">
          <mxGeometry y="52" width="140" height="28" as="geometry" />
        </mxCell>
        <mxCell id="majqjS3A9KxO7dfuxN8L-139" value="1" style="text;html=1;align=center;verticalAlign=middle;resizable=0;points=[];autosize=1;strokeColor=none;fillColor=none;" vertex="1" parent="1">
          <mxGeometry x="2475" y="46" width="30" height="30" as="geometry" />
        </mxCell>
        <mxCell id="majqjS3A9KxO7dfuxN8L-194" style="edgeStyle=orthogonalEdgeStyle;rounded=0;orthogonalLoop=1;jettySize=auto;html=1;entryX=0.499;entryY=1.027;entryDx=0;entryDy=0;entryPerimeter=0;endArrow=none;endFill=0;" edge="1" parent="1" source="majqjS3A9KxO7dfuxN8L-141" target="majqjS3A9KxO7dfuxN8L-191">
          <mxGeometry relative="1" as="geometry">
            <mxPoint x="3140" y="-300" as="targetPoint" />
          </mxGeometry>
        </mxCell>
        <mxCell id="majqjS3A9KxO7dfuxN8L-141" value="&lt;font style=&quot;vertical-align: inherit;&quot;&gt;&lt;font style=&quot;vertical-align: inherit;&quot;&gt;Ticket&lt;/font&gt;&lt;/font&gt;" style="swimlane;fontStyle=0;childLayout=stackLayout;horizontal=1;startSize=26;fillColor=none;horizontalStack=0;resizeParent=1;resizeParentMax=0;resizeLast=0;collapsible=1;marginBottom=0;whiteSpace=wrap;html=1;" vertex="1" parent="1">
          <mxGeometry x="3070" y="-225" width="140" height="104" as="geometry">
            <mxRectangle x="240" y="414" width="140" height="30" as="alternateBounds" />
          </mxGeometry>
        </mxCell>
        <mxCell id="majqjS3A9KxO7dfuxN8L-142" value="IdTicket" style="text;strokeColor=none;fillColor=none;align=left;verticalAlign=top;spacingLeft=4;spacingRight=4;overflow=hidden;rotatable=0;points=[[0,0.5],[1,0.5]];portConstraint=eastwest;whiteSpace=wrap;html=1;" vertex="1" parent="majqjS3A9KxO7dfuxN8L-141">
          <mxGeometry y="26" width="140" height="26" as="geometry" />
        </mxCell>
        <mxCell id="majqjS3A9KxO7dfuxN8L-143" value="Tipologia" style="text;strokeColor=none;fillColor=none;align=left;verticalAlign=top;spacingLeft=4;spacingRight=4;overflow=hidden;rotatable=0;points=[[0,0.5],[1,0.5]];portConstraint=eastwest;whiteSpace=wrap;html=1;" vertex="1" parent="majqjS3A9KxO7dfuxN8L-141">
          <mxGeometry y="52" width="140" height="26" as="geometry" />
        </mxCell>
        <mxCell id="majqjS3A9KxO7dfuxN8L-144" value="Stato" style="text;strokeColor=none;fillColor=none;align=left;verticalAlign=top;spacingLeft=4;spacingRight=4;overflow=hidden;rotatable=0;points=[[0,0.5],[1,0.5]];portConstraint=eastwest;whiteSpace=wrap;html=1;" vertex="1" parent="majqjS3A9KxO7dfuxN8L-141">
          <mxGeometry y="78" width="140" height="26" as="geometry" />
        </mxCell>
        <mxCell id="majqjS3A9KxO7dfuxN8L-145" value="" style="shape=flexArrow;endArrow=classic;html=1;rounded=0;entryX=0.495;entryY=1.097;entryDx=0;entryDy=0;entryPerimeter=0;" edge="1" parent="1" target="majqjS3A9KxO7dfuxN8L-144">
          <mxGeometry width="50" height="50" relative="1" as="geometry">
            <mxPoint x="3139" y="17.25" as="sourcePoint" />
            <mxPoint x="3085" y="51.88000000000022" as="targetPoint" />
          </mxGeometry>
        </mxCell>
        <mxCell id="majqjS3A9KxO7dfuxN8L-146" style="edgeStyle=orthogonalEdgeStyle;rounded=0;orthogonalLoop=1;jettySize=auto;html=1;exitX=0.5;exitY=0;exitDx=0;exitDy=0;endArrow=none;endFill=0;" edge="1" parent="1" source="majqjS3A9KxO7dfuxN8L-147">
          <mxGeometry relative="1" as="geometry">
            <mxPoint x="3140" y="17.25" as="targetPoint" />
          </mxGeometry>
        </mxCell>
        <mxCell id="majqjS3A9KxO7dfuxN8L-153" style="edgeStyle=orthogonalEdgeStyle;rounded=0;orthogonalLoop=1;jettySize=auto;html=1;entryX=0.5;entryY=0;entryDx=0;entryDy=0;exitX=0.5;exitY=1;exitDx=0;exitDy=0;endArrow=none;endFill=0;" edge="1" parent="1" source="majqjS3A9KxO7dfuxN8L-147" target="majqjS3A9KxO7dfuxN8L-67">
          <mxGeometry relative="1" as="geometry" />
        </mxCell>
        <mxCell id="majqjS3A9KxO7dfuxN8L-147" value="&lt;font style=&quot;vertical-align: inherit;&quot;&gt;&lt;font style=&quot;vertical-align: inherit;&quot;&gt;Ticket_Consegna&lt;/font&gt;&lt;/font&gt;" style="swimlane;fontStyle=0;childLayout=stackLayout;horizontal=1;startSize=26;fillColor=none;horizontalStack=0;resizeParent=1;resizeParentMax=0;resizeLast=0;collapsible=1;marginBottom=0;whiteSpace=wrap;html=1;" vertex="1" parent="1">
          <mxGeometry x="2970" y="105.25" width="140" height="52" as="geometry">
            <mxRectangle x="240" y="414" width="140" height="30" as="alternateBounds" />
          </mxGeometry>
        </mxCell>
        <mxCell id="majqjS3A9KxO7dfuxN8L-148" value="IdTicket" style="text;strokeColor=none;fillColor=none;align=left;verticalAlign=top;spacingLeft=4;spacingRight=4;overflow=hidden;rotatable=0;points=[[0,0.5],[1,0.5]];portConstraint=eastwest;whiteSpace=wrap;html=1;" vertex="1" parent="majqjS3A9KxO7dfuxN8L-147">
          <mxGeometry y="26" width="140" height="26" as="geometry" />
        </mxCell>
        <mxCell id="majqjS3A9KxO7dfuxN8L-149" style="edgeStyle=orthogonalEdgeStyle;rounded=0;orthogonalLoop=1;jettySize=auto;html=1;exitX=0.5;exitY=0;exitDx=0;exitDy=0;endArrow=none;endFill=0;" edge="1" parent="1" source="majqjS3A9KxO7dfuxN8L-150">
          <mxGeometry relative="1" as="geometry">
            <mxPoint x="3140" y="17.25" as="targetPoint" />
          </mxGeometry>
        </mxCell>
        <mxCell id="majqjS3A9KxO7dfuxN8L-150" value="&lt;font style=&quot;vertical-align: inherit;&quot;&gt;&lt;font style=&quot;vertical-align: inherit;&quot;&gt;Ticket_Ritiro&lt;/font&gt;&lt;/font&gt;" style="swimlane;fontStyle=0;childLayout=stackLayout;horizontal=1;startSize=26;fillColor=none;horizontalStack=0;resizeParent=1;resizeParentMax=0;resizeLast=0;collapsible=1;marginBottom=0;whiteSpace=wrap;html=1;" vertex="1" parent="1">
          <mxGeometry x="3180" y="105.25" width="140" height="52" as="geometry">
            <mxRectangle x="240" y="414" width="140" height="30" as="alternateBounds" />
          </mxGeometry>
        </mxCell>
        <mxCell id="majqjS3A9KxO7dfuxN8L-151" value="IdTicket" style="text;strokeColor=none;fillColor=none;align=left;verticalAlign=top;spacingLeft=4;spacingRight=4;overflow=hidden;rotatable=0;points=[[0,0.5],[1,0.5]];portConstraint=eastwest;whiteSpace=wrap;html=1;" vertex="1" parent="majqjS3A9KxO7dfuxN8L-150">
          <mxGeometry y="26" width="140" height="26" as="geometry" />
        </mxCell>
        <mxCell id="majqjS3A9KxO7dfuxN8L-154" style="edgeStyle=orthogonalEdgeStyle;rounded=0;orthogonalLoop=1;jettySize=auto;html=1;entryX=0.5;entryY=0;entryDx=0;entryDy=0;endArrow=none;endFill=0;" edge="1" parent="1" source="majqjS3A9KxO7dfuxN8L-150" target="majqjS3A9KxO7dfuxN8L-67">
          <mxGeometry relative="1" as="geometry">
            <Array as="points">
              <mxPoint x="3250" y="260" />
              <mxPoint x="3080" y="260" />
              <mxPoint x="3080" y="301" />
            </Array>
          </mxGeometry>
        </mxCell>
        <mxCell id="majqjS3A9KxO7dfuxN8L-166" style="edgeStyle=orthogonalEdgeStyle;rounded=0;orthogonalLoop=1;jettySize=auto;html=1;entryX=-0.012;entryY=0.471;entryDx=0;entryDy=0;entryPerimeter=0;endArrow=none;endFill=0;" edge="1" parent="1" source="majqjS3A9KxO7dfuxN8L-105" target="majqjS3A9KxO7dfuxN8L-143">
          <mxGeometry relative="1" as="geometry" />
        </mxCell>
        <mxCell id="majqjS3A9KxO7dfuxN8L-167" style="edgeStyle=orthogonalEdgeStyle;rounded=0;orthogonalLoop=1;jettySize=auto;html=1;entryX=0.488;entryY=1.031;entryDx=0;entryDy=0;entryPerimeter=0;endArrow=none;endFill=0;" edge="1" parent="1" source="majqjS3A9KxO7dfuxN8L-79" target="majqjS3A9KxO7dfuxN8L-69">
          <mxGeometry relative="1" as="geometry">
            <mxPoint x="3040" y="450" as="targetPoint" />
          </mxGeometry>
        </mxCell>
        <mxCell id="majqjS3A9KxO7dfuxN8L-172" value="1..*" style="text;html=1;align=center;verticalAlign=middle;resizable=0;points=[];autosize=1;strokeColor=none;fillColor=none;" vertex="1" parent="1">
          <mxGeometry x="2465" y="-120" width="40" height="30" as="geometry" />
        </mxCell>
        <mxCell id="majqjS3A9KxO7dfuxN8L-173" value="1" style="text;html=1;align=center;verticalAlign=middle;resizable=0;points=[];autosize=1;strokeColor=none;fillColor=none;" vertex="1" parent="1">
          <mxGeometry x="2856" y="-188" width="30" height="30" as="geometry" />
        </mxCell>
        <mxCell id="majqjS3A9KxO7dfuxN8L-175" value="1" style="text;html=1;align=center;verticalAlign=middle;resizable=0;points=[];autosize=1;strokeColor=none;fillColor=none;" vertex="1" parent="1">
          <mxGeometry x="3040" y="-188" width="30" height="30" as="geometry" />
        </mxCell>
        <mxCell id="majqjS3A9KxO7dfuxN8L-176" value="1" style="text;html=1;align=center;verticalAlign=middle;resizable=0;points=[];autosize=1;strokeColor=none;fillColor=none;" vertex="1" parent="1">
          <mxGeometry x="3250" y="312" width="30" height="30" as="geometry" />
        </mxCell>
        <mxCell id="majqjS3A9KxO7dfuxN8L-177" value="1..*" style="text;html=1;align=center;verticalAlign=middle;resizable=0;points=[];autosize=1;strokeColor=none;fillColor=none;" vertex="1" parent="1">
          <mxGeometry x="3100" y="312" width="40" height="30" as="geometry" />
        </mxCell>
        <mxCell id="majqjS3A9KxO7dfuxN8L-178" value="1" style="text;html=1;align=center;verticalAlign=middle;resizable=0;points=[];autosize=1;strokeColor=none;fillColor=none;" vertex="1" parent="1">
          <mxGeometry x="3420" y="690" width="30" height="30" as="geometry" />
        </mxCell>
        <mxCell id="majqjS3A9KxO7dfuxN8L-179" value="1..*" style="text;html=1;align=center;verticalAlign=middle;resizable=0;points=[];autosize=1;strokeColor=none;fillColor=none;" vertex="1" parent="1">
          <mxGeometry x="3320" y="690" width="40" height="30" as="geometry" />
        </mxCell>
        <mxCell id="majqjS3A9KxO7dfuxN8L-180" value="1" style="text;html=1;align=center;verticalAlign=middle;resizable=0;points=[];autosize=1;strokeColor=none;fillColor=none;" vertex="1" parent="1">
          <mxGeometry x="3150" y="683.5" width="30" height="30" as="geometry" />
        </mxCell>
        <mxCell id="majqjS3A9KxO7dfuxN8L-181" value="1..*" style="text;html=1;align=center;verticalAlign=middle;resizable=0;points=[];autosize=1;strokeColor=none;fillColor=none;" vertex="1" parent="1">
          <mxGeometry x="3035" y="384" width="40" height="30" as="geometry" />
        </mxCell>
        <mxCell id="majqjS3A9KxO7dfuxN8L-182" value="Corriere" style="swimlane;fontStyle=0;childLayout=stackLayout;horizontal=1;startSize=26;fillColor=none;horizontalStack=0;resizeParent=1;resizeParentMax=0;resizeLast=0;collapsible=1;marginBottom=0;whiteSpace=wrap;html=1;" vertex="1" parent="1">
          <mxGeometry x="3390" y="-195" width="140" height="52" as="geometry" />
        </mxCell>
        <mxCell id="majqjS3A9KxO7dfuxN8L-183" value="IdCorriere" style="text;strokeColor=none;fillColor=none;align=left;verticalAlign=top;spacingLeft=4;spacingRight=4;overflow=hidden;rotatable=0;points=[[0,0.5],[1,0.5]];portConstraint=eastwest;whiteSpace=wrap;html=1;" vertex="1" parent="majqjS3A9KxO7dfuxN8L-182">
          <mxGeometry y="26" width="140" height="26" as="geometry" />
        </mxCell>
        <mxCell id="majqjS3A9KxO7dfuxN8L-185" value="1" style="text;html=1;align=center;verticalAlign=middle;resizable=0;points=[];autosize=1;strokeColor=none;fillColor=none;" vertex="1" parent="1">
          <mxGeometry x="3360" y="-195" width="30" height="30" as="geometry" />
        </mxCell>
        <mxCell id="majqjS3A9KxO7dfuxN8L-186" style="edgeStyle=orthogonalEdgeStyle;rounded=0;orthogonalLoop=1;jettySize=auto;html=1;entryX=0.994;entryY=0.152;entryDx=0;entryDy=0;entryPerimeter=0;endArrow=none;endFill=0;" edge="1" parent="1" source="majqjS3A9KxO7dfuxN8L-182" target="majqjS3A9KxO7dfuxN8L-143">
          <mxGeometry relative="1" as="geometry" />
        </mxCell>
        <mxCell id="majqjS3A9KxO7dfuxN8L-187" value="1..*" style="text;html=1;align=center;verticalAlign=middle;resizable=0;points=[];autosize=1;strokeColor=none;fillColor=none;" vertex="1" parent="1">
          <mxGeometry x="3210" y="-195" width="40" height="30" as="geometry" />
        </mxCell>
        <mxCell id="majqjS3A9KxO7dfuxN8L-188" style="edgeStyle=orthogonalEdgeStyle;rounded=0;orthogonalLoop=1;jettySize=auto;html=1;entryX=-0.001;entryY=0.362;entryDx=0;entryDy=0;entryPerimeter=0;endArrow=none;endFill=0;" edge="1" parent="1" source="majqjS3A9KxO7dfuxN8L-77" target="majqjS3A9KxO7dfuxN8L-75">
          <mxGeometry relative="1" as="geometry" />
        </mxCell>
        <mxCell id="majqjS3A9KxO7dfuxN8L-189" value="&lt;font style=&quot;vertical-align: inherit;&quot;&gt;&lt;font style=&quot;vertical-align: inherit;&quot;&gt;Mezzo&lt;/font&gt;&lt;/font&gt;" style="swimlane;fontStyle=0;childLayout=stackLayout;horizontal=1;startSize=26;fillColor=none;horizontalStack=0;resizeParent=1;resizeParentMax=0;resizeLast=0;collapsible=1;marginBottom=0;whiteSpace=wrap;html=1;" vertex="1" parent="1">
          <mxGeometry x="3070" y="-387" width="140" height="78" as="geometry">
            <mxRectangle x="240" y="414" width="140" height="30" as="alternateBounds" />
          </mxGeometry>
        </mxCell>
        <mxCell id="majqjS3A9KxO7dfuxN8L-190" value="IdMezzo" style="text;strokeColor=none;fillColor=none;align=left;verticalAlign=top;spacingLeft=4;spacingRight=4;overflow=hidden;rotatable=0;points=[[0,0.5],[1,0.5]];portConstraint=eastwest;whiteSpace=wrap;html=1;" vertex="1" parent="majqjS3A9KxO7dfuxN8L-189">
          <mxGeometry y="26" width="140" height="26" as="geometry" />
        </mxCell>
        <mxCell id="majqjS3A9KxO7dfuxN8L-191" value="Tipologia" style="text;strokeColor=none;fillColor=none;align=left;verticalAlign=top;spacingLeft=4;spacingRight=4;overflow=hidden;rotatable=0;points=[[0,0.5],[1,0.5]];portConstraint=eastwest;whiteSpace=wrap;html=1;" vertex="1" parent="majqjS3A9KxO7dfuxN8L-189">
          <mxGeometry y="52" width="140" height="26" as="geometry" />
        </mxCell>
        <mxCell id="majqjS3A9KxO7dfuxN8L-195" value="1" style="text;html=1;align=center;verticalAlign=middle;resizable=0;points=[];autosize=1;strokeColor=none;fillColor=none;" vertex="1" parent="1">
          <mxGeometry x="3130" y="-250" width="30" height="30" as="geometry" />
        </mxCell>
        <mxCell id="majqjS3A9KxO7dfuxN8L-196" value="1..*" style="text;html=1;align=center;verticalAlign=middle;resizable=0;points=[];autosize=1;strokeColor=none;fillColor=none;" vertex="1" parent="1">
          <mxGeometry x="3130" y="-309" width="40" height="30" as="geometry" />
        </mxCell>
        <mxCell id="HYFPx__uabjEBOBHC5V3-1" value="accesso a" style="text;html=1;align=center;verticalAlign=middle;resizable=0;points=[];autosize=1;strokeColor=none;fillColor=none;" vertex="1" parent="1">
          <mxGeometry x="2300" y="308" width="80" height="30" as="geometry" />
        </mxCell>
        <mxCell id="HYFPx__uabjEBOBHC5V3-2" value="contiene dei" style="text;html=1;align=center;verticalAlign=middle;resizable=0;points=[];autosize=1;strokeColor=none;fillColor=none;" vertex="1" parent="1">
          <mxGeometry x="2495" y="202" width="90" height="30" as="geometry" />
        </mxCell>
        <mxCell id="HYFPx__uabjEBOBHC5V3-3" value="registra un" style="text;html=1;align=center;verticalAlign=middle;resizable=0;points=[];autosize=1;strokeColor=none;fillColor=none;" vertex="1" parent="1">
          <mxGeometry x="2701" y="308" width="80" height="30" as="geometry" />
        </mxCell>
        <mxCell id="HYFPx__uabjEBOBHC5V3-4" value="consegna un" style="text;html=1;align=center;verticalAlign=middle;resizable=0;points=[];autosize=1;strokeColor=none;fillColor=none;" vertex="1" parent="1">
          <mxGeometry x="3030" y="209" width="90" height="30" as="geometry" />
        </mxCell>
        <mxCell id="HYFPx__uabjEBOBHC5V3-5" value="ritira un" style="text;html=1;align=center;verticalAlign=middle;resizable=0;points=[];autosize=1;strokeColor=none;fillColor=none;" vertex="1" parent="1">
          <mxGeometry x="3246" y="202" width="60" height="30" as="geometry" />
        </mxCell>
        <mxCell id="HYFPx__uabjEBOBHC5V3-6" value="contiene delle" style="text;html=1;align=center;verticalAlign=middle;resizable=0;points=[];autosize=1;strokeColor=none;fillColor=none;" vertex="1" parent="1">
          <mxGeometry x="3246" y="569.5" width="100" height="30" as="geometry" />
        </mxCell>
        <mxCell id="HYFPx__uabjEBOBHC5V3-7" value="gestita da" style="text;html=1;align=center;verticalAlign=middle;resizable=0;points=[];autosize=1;strokeColor=none;fillColor=none;" vertex="1" parent="1">
          <mxGeometry x="3350" y="683.5" width="80" height="30" as="geometry" />
        </mxCell>
        <mxCell id="HYFPx__uabjEBOBHC5V3-8" value="lavorato nella" style="text;html=1;align=center;verticalAlign=middle;resizable=0;points=[];autosize=1;strokeColor=none;fillColor=none;" vertex="1" parent="1">
          <mxGeometry x="3045" y="683.5" width="90" height="30" as="geometry" />
        </mxCell>
        <mxCell id="HYFPx__uabjEBOBHC5V3-9" value="contenuto in" style="text;html=1;align=center;verticalAlign=middle;resizable=0;points=[];autosize=1;strokeColor=none;fillColor=none;" vertex="1" parent="1">
          <mxGeometry x="3150" y="312" width="90" height="30" as="geometry" />
        </mxCell>
        <mxCell id="HYFPx__uabjEBOBHC5V3-10" value="svolge dei" style="text;html=1;align=center;verticalAlign=middle;resizable=0;points=[];autosize=1;strokeColor=none;fillColor=none;" vertex="1" parent="1">
          <mxGeometry x="3256" y="-201" width="80" height="30" as="geometry" />
        </mxCell>
        <mxCell id="HYFPx__uabjEBOBHC5V3-11" value="usato nei" style="text;html=1;align=center;verticalAlign=middle;resizable=0;points=[];autosize=1;strokeColor=none;fillColor=none;" vertex="1" parent="1">
          <mxGeometry x="3135" y="-282" width="70" height="30" as="geometry" />
        </mxCell>
        <mxCell id="HYFPx__uabjEBOBHC5V3-12" value="seguito in un" style="text;html=1;align=center;verticalAlign=middle;resizable=0;points=[];autosize=1;strokeColor=none;fillColor=none;" vertex="1" parent="1">
          <mxGeometry x="2920" y="-188" width="90" height="30" as="geometry" />
        </mxCell>
        <mxCell id="HYFPx__uabjEBOBHC5V3-13" value="contenute in" style="text;html=1;align=center;verticalAlign=middle;resizable=0;points=[];autosize=1;strokeColor=none;fillColor=none;" vertex="1" parent="1">
          <mxGeometry x="2590" y="-188" width="90" height="30" as="geometry" />
        </mxCell>
        <mxCell id="HYFPx__uabjEBOBHC5V3-14" value="rappresentata da" style="text;html=1;align=center;verticalAlign=middle;resizable=0;points=[];autosize=1;strokeColor=none;fillColor=none;" vertex="1" parent="1">
          <mxGeometry x="2560" y="-50" width="110" height="30" as="geometry" />
        </mxCell>
        <mxCell id="HYFPx__uabjEBOBHC5V3-16" value="&lt;font style=&quot;vertical-align: inherit;&quot;&gt;&lt;font style=&quot;vertical-align: inherit;&quot;&gt;&lt;font style=&quot;vertical-align: inherit;&quot;&gt;&lt;font style=&quot;vertical-align: inherit;&quot;&gt;Azienda&lt;/font&gt;&lt;/font&gt;&lt;/font&gt;&lt;/font&gt;" style="swimlane;fontStyle=0;childLayout=stackLayout;horizontal=1;startSize=26;fillColor=none;horizontalStack=0;resizeParent=1;resizeParentMax=0;resizeLast=0;collapsible=1;marginBottom=0;whiteSpace=wrap;html=1;" vertex="1" parent="1">
          <mxGeometry x="2631" y="79.25" width="140" height="52" as="geometry" />
        </mxCell>
        <mxCell id="HYFPx__uabjEBOBHC5V3-17" value="IdAzienda" style="text;strokeColor=none;fillColor=none;align=left;verticalAlign=top;spacingLeft=4;spacingRight=4;overflow=hidden;rotatable=0;points=[[0,0.5],[1,0.5]];portConstraint=eastwest;whiteSpace=wrap;html=1;" vertex="1" parent="HYFPx__uabjEBOBHC5V3-16">
          <mxGeometry y="26" width="140" height="26" as="geometry" />
        </mxCell>
        <mxCell id="HYFPx__uabjEBOBHC5V3-19" style="edgeStyle=orthogonalEdgeStyle;rounded=0;orthogonalLoop=1;jettySize=auto;html=1;entryX=0.836;entryY=1.02;entryDx=0;entryDy=0;entryPerimeter=0;endArrow=none;startFill=0;" edge="1" parent="1" source="HYFPx__uabjEBOBHC5V3-16" target="majqjS3A9KxO7dfuxN8L-138">
          <mxGeometry relative="1" as="geometry" />
        </mxCell>
        <mxCell id="HYFPx__uabjEBOBHC5V3-20" value="rappresentata da" style="text;html=1;align=center;verticalAlign=middle;resizable=0;points=[];autosize=1;strokeColor=none;fillColor=none;" vertex="1" parent="1">
          <mxGeometry x="2385" y="-30" width="110" height="30" as="geometry" />
        </mxCell>
        <mxCell id="HYFPx__uabjEBOBHC5V3-21" value="1..*" style="text;html=1;align=center;verticalAlign=middle;resizable=0;points=[];autosize=1;strokeColor=none;fillColor=none;" vertex="1" parent="1">
          <mxGeometry x="2540" y="-120" width="40" height="30" as="geometry" />
        </mxCell>
        <mxCell id="HYFPx__uabjEBOBHC5V3-22" value="1" style="text;html=1;align=center;verticalAlign=middle;resizable=0;points=[];autosize=1;strokeColor=none;fillColor=none;" vertex="1" parent="1">
          <mxGeometry x="2671" y="49.25" width="30" height="30" as="geometry" />
        </mxCell>
      </root>
    </mxGraphModel>
  </diagram>
</mxfile>
